<?xml version="1.0"?>
<svg version="1.1" xmlns="http://www.w3.org/2000/svg" width="100" height="40" style=""><path fill="#ff5722" d="M15.984375,33.46875q-0.015625-0.46875-0.015625-0.9375q0-1.46875,0.15625-2.953125q0.1875-1.96875,0.25-3.875q0.0625-2.234375,0.1875-4.640625q0.078125-1.3125,0.078125-2.59375q0-1.046875-0.046875-2.078125q0.15625-0.359375,0.4140625-0.484375t0.6484375-0.125q0.1875,0,0.3984375,0.03125t0.3671875,0.15625q0.21875,0.03125,0.5390625,0.0625t0.4921875,0.1875q0.0625,0.09375,0.3203125,0.640625t0.609375,1.328125t0.734375,1.6953125t0.734375,1.734375t0.609375,1.4453125t0.3203125,0.78125q1.46875-2.65625,2.875-5.4609375t3.078125-5.2890625q0.15625-0.21875,0.5390625-0.3203125t0.6328125-0.1015625q0.671875,0,0.9765625,0.3203125t0.3984375,0.8203125q0.0625,0.3125,0.078125,0.671875q0.015625,0.1875-0.015625,0.390625q-0.0625,0.578125-0.0625,1.09375q0,3.640625-0.25,7.2265625t-0.453125,7.2421875q-0.03125,0.75-0.03125,1.5625t0.03125,1.6875q0.015625,0.3125,0.015625,0.609375q0,1.375-0.234375,2.5625q-0.21875,0.359375-0.71875,0.453125t-0.84375,0.09375q-0.734375,0-1.40625-0.34375l-0.171875-0.203125l-0.0625-0.25t-0.03125-0.25q0-2.265625,0.1640625-4.5625t0.3671875-4.5859375t0.4296875-4.5703125t0.3828125-4.5625q-0.921875,1.53125-1.7890625,3.1171875t-1.6328125,3.2265625q-0.28125,0.640625-0.5390625,1.375t-0.6171875,1.3125q-0.1875,0.28125-0.6328125,0.34375t-0.7734375,0.0625q-0.3125,0-0.6484375-0.109375t-0.4609375-0.46875q-0.578125-1.765625-1.234375-3.453125t-1.328125-3.421875q0,1.15625,0.046875,2.9921875t0.046875,3.8046875t-0.0625,3.765625t-0.296875,2.84375q-0.0625,0.390625-0.5078125,0.484375t-0.7734375,0.09375q-0.25,0-0.4765625-0.03125t-0.4453125-0.125z"/><path fill="#ffffff" d="M39.54171875,30.171875q0-1.0625,0.2890625-2.046875t0.8671875-1.7578125t1.4453125-1.234375t2.0078125-0.4609375q0.703125,0,1.5546875,0.2109375t1.6015625,0.625t1.25,1.0546875t0.5,1.46875q0,0.390625-0.1328125,0.59375t-0.5390625,0.203125l-0.171875-0.03125q0.453125,1.21875,0.78125,2.5t0.640625,2.5625q0.125,0.25,0.1875,0.4453125t0.0625,0.3828125q0,0.25-0.140625,0.4140625t-0.3671875,0.2421875t-0.46875,0.109375t-0.4296875,0.03125q-0.671875,0-1.0078125-0.234375t-0.484375-0.640625t-0.1796875-0.9140625t-0.125-1.0234375q-0.1875,0.609375-0.4921875,1.1875t-0.71875,1.0390625t-0.9765625,0.734375t-1.265625,0.2734375q-1.03125,0-1.734375-0.59375t-1.1328125-1.4609375t-0.625-1.8515625t-0.1953125-1.828125z M41.76046875,29.953125q0,0.578125,0.078125,1.21875t0.2578125,1.265625t0.4609375,1.1796875t0.703125,0.9765625q0.765625-0.828125,1.1328125-2.015625t0.65625-2.2890625t0.65625-1.890625t1.1328125-0.7890625q0.484375,0,0.8125,0.171875q-0.15625-0.390625-0.515625-0.7578125t-0.8046875-0.671875t-0.921875-0.5t-0.8984375-0.1953125q-0.125,0-0.2890625,0.0390625t-0.2578125,0.0078125q-0.640625,0.1875-1.0546875,0.6484375t-0.671875,1.0859375t-0.3671875,1.28125t-0.109375,1.234375z M53.0834375,25.796875q0-0.640625,0.2265625-1.078125t0.9609375-0.4375q0.28125,0,0.703125,0.0859375t0.484375,0.4296875q0.15625,0.921875,0.171875,2t0.109375,2.03125q0.359375-0.703125,0.921875-1.515625t1.28125-1.5t1.5625-1.140625t1.71875-0.453125q0.0625,0,0.234375,0.046875t0.3203125,0.1328125t0.1796875,0.1953125t-0.171875,0.203125q-0.0625,0.1875-0.265625,0.2265625t-0.359375,0.0390625q-0.09375,0-0.296875-0.078125q-1.15625,0.609375-1.96875,1.65625t-1.328125,2.3203125t-0.75,2.6875t-0.234375,2.7578125q0,0.671875-0.3046875,0.8125t-0.9765625,0.140625q-0.359375,0-0.7578125-0.078125t-0.5546875-0.5q-0.28125-0.890625-0.4609375-2.046875t-0.2734375-2.3828125t-0.1328125-2.4140625t-0.0390625-2.140625z M63.54703125,24.359375q0-0.125,0.1484375-0.2265625t0.3359375-0.1484375t0.3828125-0.0625t0.2890625-0.015625q0.703125,0,1.203125,0.625t0.8671875,1.6015625t0.625,2.15625t0.4921875,2.3515625t0.4609375,2.1484375t0.5078125,1.5078125q0.484375-0.953125,0.8828125-2.296875t0.734375-2.78125t0.59375-2.8359375t0.4140625-2.4453125q0.0625-0.28125,0.390625-0.3515625t0.546875-0.0703125q0.359375,0,0.625,0.1015625t0.265625,0.4453125q0,0.578125-0.140625,1.5703125t-0.3828125,2.2265625t-0.5625,2.53125t-0.6875,2.4609375t-0.765625,2.0625t-0.7890625,1.2734375q-0.1875,0.21875-0.5859375,0.3046875t-0.6640625,0.0859375q-0.921875,0-1.53125-0.484375l0,0.03125q-0.953125-0.890625-1.40625-2.171875t-0.65625-2.671875t-0.3671875-2.765625t-0.5546875-2.5q-0.0625-0.125-0.15625-0.3671875t-0.21875-0.484375t-0.2109375-0.4609375t-0.0859375-0.34375z M75.87,29.796875q0-1.4375,0.3359375-2.8203125t0.5703125-2.7578125q0.0625-0.359375,0.4921875-0.4453125t0.7265625-0.0859375q0.515625,0,0.828125,0.15625q0.125,0.0625,0.234375,0.140625t0.109375,0.203125q0,1.34375-0.3203125,2.625t-0.3203125,2.71875q0,0.484375,0.0703125,0.9140625t0.1328125,0.8515625l0.09375,0.453125q0,0.125,0.015625,0.21875t0.046875,0.21875q0,0.28125-0.3984375,0.3828125t-0.6953125,0.1015625q-0.453125,0-0.8359375-0.1796875t-0.6015625-0.6171875l-0.21875-0.453125q-0.1875-0.359375-0.1875-0.8046875t-0.078125-0.8203125z M76.87,20.390625l0-0.296875q0-0.734375,0.3671875-1.3125t1.1015625-0.578125q0.09375,0,0.1796875,0.015625t0.1796875,0.015625q0.1875,0.03125,0.4921875,0.1484375t0.3046875,0.3671875l0,0.03125q-0.0625,0.125-0.078125,0.2578125t-0.078125,0.2265625l0.03125-0.03125q-0.1875,0.484375-0.3046875,0.78125t-0.2578125,0.4765625t-0.3515625,0.2578125t-0.6015625,0.078125q-0.0625,0-0.21875-0.015625t-0.3359375-0.0625t-0.3046875-0.125t-0.125-0.234375z M82.70859375,30.25l0-0.453125q0-0.5625,0.03125-1.0625q0.03125-0.703125,0.03125-1.15625q0-0.25,0.03125-0.5703125t0.15625-0.5078125q0.15625-0.15625,0.3671875-0.3203125t0.4609375-0.1640625q0.796875,0,1.25,0.1796875t0.484375,0.7421875l0.0625,0.484375q0.28125-0.671875,0.75-1.6640625t1.0859375-1.890625t1.390625-1.53125t1.6328125-0.6328125q0.796875,0,1.3125,0.75t0.8203125,1.9140625t0.4296875,2.59375t0.171875,2.8046875t0.0625,2.5078125t0.109375,1.7109375q0.0625,0.484375,0.2109375,1.0234375t0.1484375,0.9921875q0,0.125-0.1796875,0.2421875t-0.3828125,0.1953125t-0.4140625,0.125t-0.3046875,0.046875q-0.609375,0-0.8671875-0.9140625t-0.3203125-2.2890625t-0.0625-2.9765625t-0.109375-2.9765625t-0.4453125-2.2890625t-1.0703125-0.9453125q-0.671875,0-1.390625,0.8671875t-1.234375,2.3046875q-0.5,1.4375-0.6875,3.265625q-0.0625,0.578125-0.0625,1.15625q0,1.265625,0.265625,2.53125q0.03125,0.21875-0.1796875,0.328125t-0.5234375,0.171875t-0.6328125,0.078125t-0.4921875,0.015625q-0.609375,0-0.9765625-0.4296875t-0.5703125-1.1015625t-0.2734375-1.5078125t-0.0859375-1.6484375z"/></svg>
